<?xml version="1.0" encoding="UTF-8"?>
<svg version="1.1" xmlns="http://www.w3.org/2000/svg" width="560" height="380">
<path d="M0 0 C184.8 0 369.6 0 560 0 C560 125.4 560 250.8 560 380 C375.2 380 190.4 380 0 380 C0 254.6 0 129.2 0 0 Z " fill="#FEFEFE" transform="translate(0,0)"/>
<path d="M0 0 C5.41658138 4.72214787 11.58401841 10.21738647 12.9375 17.5625 C13.5975 17.5625 14.2575 17.5625 14.9375 17.5625 C20.06350505 27.63236779 22.19011944 37.69031901 22.25 48.9375 C22.25547852 49.68636475 22.26095703 50.43522949 22.26660156 51.20678711 C22.17050624 58.64340552 19.82928262 65.04573223 17.3125 72 C16.86648438 73.23621094 16.42046875 74.47242188 15.9609375 75.74609375 C15.62320313 76.67550781 15.28546875 77.60492188 14.9375 78.5625 C14.2775 78.5625 13.6175 78.5625 12.9375 78.5625 C12.73125 79.2225 12.525 79.8825 12.3125 80.5625 C8.41495942 89.0662249 1.32757815 95.42777368 -5.23828125 101.8984375 C-6.21431488 102.86818633 -7.18982558 103.83846175 -8.1648407 104.80923462 C-10.70993593 107.34114116 -13.26057179 109.86738255 -15.81292725 112.39196777 C-19.91606417 116.45165726 -24.01218479 120.51839988 -28.10524559 124.58824539 C-29.53265104 126.00543703 -30.96360802 127.41904863 -32.39460754 128.83261108 C-33.25607895 129.68755157 -34.11755035 130.54249207 -35.00512695 131.42333984 C-35.76646439 132.17642426 -36.52780182 132.92950867 -37.31221008 133.70541382 C-39.12790084 135.45328848 -39.12790084 135.45328848 -40.0625 137.5625 C-43.0625 137.5625 -43.0625 137.5625 -44.53076172 136.1706543 C-45.31604248 135.1947937 -45.31604248 135.1947937 -46.1171875 134.19921875 C-50.51364015 128.95374017 -55.32745788 124.18837997 -60.1875 119.375 C-61.06792969 118.49908203 -61.94835937 117.62316406 -62.85546875 116.72070312 C-64.54229742 115.04277928 -66.23015305 113.36588701 -67.91918945 111.69018555 C-69.50855086 110.11241079 -71.09338567 108.53007339 -72.67578125 106.9453125 C-74.74357108 104.88090694 -76.82456448 102.8315245 -78.91015625 100.78515625 C-80.31520667 99.39854136 -81.72015232 98.0118203 -83.125 96.625 C-83.83205078 95.93470703 -84.53910156 95.24441406 -85.26757812 94.53320312 C-89.06061903 90.77577763 -92.3981227 87.206129 -95.0625 82.5625 C-95.0625 81.9025 -95.0625 81.2425 -95.0625 80.5625 C-95.7225 80.5625 -96.3825 80.5625 -97.0625 80.5625 C-100.00861692 74.97387362 -102.55765118 69.70729934 -104.0625 63.5625 C-104.3925 62.5725 -104.7225 61.5825 -105.0625 60.5625 C-106.55778693 41.42735844 -104.0595083 22.76164213 -91.2019043 7.71948242 C-66.30428525 -19.7330847 -29.01223113 -22.72425786 0 0 Z " fill="#F5F9F8" transform="translate(315.0625,103.4375)"/>
<path d="M0 0 C5.41658138 4.72214787 11.58401841 10.21738647 12.9375 17.5625 C13.5975 17.5625 14.2575 17.5625 14.9375 17.5625 C20.06350505 27.63236779 22.19011944 37.69031901 22.25 48.9375 C22.25547852 49.68636475 22.26095703 50.43522949 22.26660156 51.20678711 C22.17050624 58.64340552 19.82928262 65.04573223 17.3125 72 C16.86648438 73.23621094 16.42046875 74.47242188 15.9609375 75.74609375 C15.62320313 76.67550781 15.28546875 77.60492188 14.9375 78.5625 C14.2775 78.5625 13.6175 78.5625 12.9375 78.5625 C12.73125 79.2225 12.525 79.8825 12.3125 80.5625 C8.41495942 89.0662249 1.32757815 95.42777368 -5.23828125 101.8984375 C-6.21431488 102.86818633 -7.18982558 103.83846175 -8.1648407 104.80923462 C-10.70993593 107.34114116 -13.26057179 109.86738255 -15.81292725 112.39196777 C-19.91606417 116.45165726 -24.01218479 120.51839988 -28.10524559 124.58824539 C-29.53265104 126.00543703 -30.96360802 127.41904863 -32.39460754 128.83261108 C-33.25607895 129.68755157 -34.11755035 130.54249207 -35.00512695 131.42333984 C-35.76646439 132.17642426 -36.52780182 132.92950867 -37.31221008 133.70541382 C-39.12790084 135.45328848 -39.12790084 135.45328848 -40.0625 137.5625 C-43.0625 137.5625 -43.0625 137.5625 -44.53076172 136.1706543 C-45.31604248 135.1947937 -45.31604248 135.1947937 -46.1171875 134.19921875 C-50.51364015 128.95374017 -55.32745788 124.18837997 -60.1875 119.375 C-61.06792969 118.49908203 -61.94835937 117.62316406 -62.85546875 116.72070312 C-64.54229742 115.04277928 -66.23015305 113.36588701 -67.91918945 111.69018555 C-69.50855086 110.11241079 -71.09338567 108.53007339 -72.67578125 106.9453125 C-74.74357108 104.88090694 -76.82456448 102.8315245 -78.91015625 100.78515625 C-80.31520667 99.39854136 -81.72015232 98.0118203 -83.125 96.625 C-83.83205078 95.93470703 -84.53910156 95.24441406 -85.26757812 94.53320312 C-89.06061903 90.77577763 -92.3981227 87.206129 -95.0625 82.5625 C-95.0625 81.9025 -95.0625 81.2425 -95.0625 80.5625 C-95.7225 80.5625 -96.3825 80.5625 -97.0625 80.5625 C-100.00861692 74.97387362 -102.55765118 69.70729934 -104.0625 63.5625 C-104.3925 62.5725 -104.7225 61.5825 -105.0625 60.5625 C-106.55778693 41.42735844 -104.0595083 22.76164213 -91.2019043 7.71948242 C-66.30428525 -19.7330847 -29.01223113 -22.72425786 0 0 Z M-78.8046875 17.67578125 C-88.59584543 30.84972122 -90.59608397 42.72882363 -88.69140625 58.66796875 C-86.19569495 70.32035873 -77.77215067 81.83416824 -68.0625 88.5625 C-55.61158208 95.90099556 -42.37931777 97.90865957 -28.21484375 94.6875 C-12.00394666 88.81370654 -3.17224619 78.24503132 4.58203125 63.41796875 C6.54537302 58.69497369 6.47115285 53.92551553 6.4375 48.875 C6.43250488 47.89837402 6.42750977 46.92174805 6.42236328 45.91552734 C6.14914963 34.58940819 2.39672628 26.0322126 -5.0625 17.5625 C-5.58585937 16.95792969 -6.10921875 16.35335937 -6.6484375 15.73046875 C-15.01737254 6.71323593 -26.15183176 1.60830298 -38.32421875 0.1796875 C-53.32120584 -0.36302615 -69.13424397 5.94548989 -78.8046875 17.67578125 Z " fill="#39475D" transform="translate(315.0625,103.4375)"/>
<path d="M0 0 C0.01458252 0.6297876 0.02916504 1.2595752 0.04418945 1.90844727 C0.11918994 4.79371321 0.21567639 7.67788723 0.3125 10.5625 C0.33505859 11.55314453 0.35761719 12.54378906 0.38085938 13.56445312 C0.6831125 21.8351976 2.18151047 27.23638582 7.625 33.6875 C9.91590118 36.4085493 11.54635433 38.40994201 12 42 C10.21288469 43.78711531 7.7367374 43.29896843 5.3125 43.375 C-3.12405558 43.34700258 -10.48213255 40.75893372 -18 37 C-18.3690205 24.33029613 -18.3690205 24.33029613 -16 19 C-15.34 19 -14.68 19 -14 19 C-13.95875 18.175 -13.9175 17.35 -13.875 16.5 C-12.59449685 11.37798739 -6.0241945 0 0 0 Z " fill="#71C09D" transform="translate(248,117)"/>
<path d="M0 0 C-0.33 0.66 -0.66 1.32 -1 2 C-2.96337582 2.48566159 -4.94764745 2.88778647 -6.9375 3.25 C-17.2875194 5.52859135 -24.86558017 10.29019691 -31 19 C-32.43701723 21.77853916 -32.43701723 21.77853916 -33 24 C-34.8125 23.9375 -34.8125 23.9375 -37 23 C-40.47182515 16.92430598 -40.3619065 11.43590484 -40.1875 4.5625 C-40.17396484 3.54478516 -40.16042969 2.52707031 -40.14648438 1.47851562 C-40.1113661 -1.01488214 -40.06218559 -3.50715512 -40 -6 C-24.68908335 -9.27475164 -13.52023007 -8.26236282 0 0 Z " fill="#6DBE9A" transform="translate(299,117)"/>
<path d="M0 0 C0.825 0.3609375 1.65 0.721875 2.5 1.09375 C12.28641632 5.02579227 22.48194867 7.38327342 32.87109375 4.08984375 C35.21362105 3.06121053 35.21362105 3.06121053 37.203125 1.875 C39 1 39 1 43 1 C43.31563182 6.26053037 42.66590937 9.44573816 40 14 C39.34 14 38.68 14 38 14 C37.79375 14.680625 37.5875 15.36125 37.375 16.0625 C35.5162107 20.03354987 33.5838982 23.37333957 30 26 C24.94154382 27.05542977 20.70143285 25.10982097 16.4375 22.5 C9.4261662 17.38859057 3.75502471 10.82296814 0 3 C0 2.01 0 1.02 0 0 Z " fill="#6FBF9B" transform="translate(234,167)"/>
<path d="M0 0 C0.79955001 1.51670364 1.58921388 3.03861998 2.375 4.5625 C2.81585938 5.40941406 3.25671875 6.25632813 3.7109375 7.12890625 C6.62317233 13.61524747 7.29576203 19.32105227 7.1875 26.3125 C7.18685547 27.12267578 7.18621094 27.93285156 7.18554688 28.76757812 C7.1409552 34.7180896 7.1409552 34.7180896 6 37 C5.01 36.67 4.02 36.34 3 36 C2.731875 35.29875 2.46375 34.5975 2.1875 33.875 C-0.62251974 27.0717943 -5.56727241 23.21636379 -12 20 C-12 19.34 -12 18.68 -12 18 C-12.99 17.87625 -13.98 17.7525 -15 17.625 C-19.08880024 17.04805273 -23.00861887 16.05036346 -27 15 C-26.66879278 12.12141963 -26.43990155 10.45378194 -24.390625 8.33984375 C-17.08597718 3.55449965 -8.83734037 0 0 0 Z " fill="#70BF9C" transform="translate(309,126)"/>
<path d="M0 0 C8.10948327 1.26494077 13.63312345 8.57262912 18.53125 14.53515625 C20.22114419 17.37112229 20.51417489 18.75755016 20 22 C17.16831854 26.82992477 12.80283166 30.27111838 8 33 C7.34 33 6.68 33 6 33 C6 33.66 6 34.32 6 35 C3.94037148 35.67548578 1.87715678 36.34004312 -0.1875 37 C-1.33605469 37.37125 -2.48460937 37.7425 -3.66796875 38.125 C-6.64320812 38.90630553 -8.95283896 39.18363306 -12 39 C-9.26916376 34.40069686 -9.26916376 34.40069686 -7.79296875 32.203125 C-1.63747693 22.90479899 -0.68206142 15.21025025 -0.9921875 4.28125 C-0.99476563 3.1984375 -0.99734375 2.115625 -1 1 C-0.67 0.67 -0.34 0.34 0 0 Z " fill="#72C09D" transform="translate(288,155)"/>
<path d="M0 0 C3.375 1.4375 3.375 1.4375 6 4 C6.83229226 7.16389116 6.74045708 9.8233826 6 13 C3.9973443 16.06656654 2.64863713 17.60498001 -0.97265625 18.47265625 C-4.59292912 18.73656399 -6.63783776 18.28067573 -9.5 16.0625 C-11.51377083 11.95105123 -11.96424045 8.49419896 -11 4 C-7.75939024 0.09220588 -4.97357412 -0.8120121 0 0 Z " fill="#495669" transform="translate(204,315)"/>
<path d="M0 0 C2.87305972 1.40460697 4.74510999 2.74510999 7 5 C7.23026307 8.11150347 6.83548126 10.99886336 6 14 C3.25503573 16.74496427 0.69306168 17.21272756 -3.0625 17.5 C-7 17 -7 17 -9.5 15 C-11.57342659 10.85314682 -11.58651804 8.61882953 -11 4 C-8.14322939 -0.57083298 -5.12924275 -0.629907 0 0 Z " fill="#4F5B6E" transform="translate(291,274)"/>
<path d="M0 0 C3.4375 1.4375 3.4375 1.4375 6 4 C6.81281081 7.16415635 6.76221706 9.8289443 6 13 C3.87514581 15.72246943 2.42877889 16.73121981 -0.97265625 17.37109375 C-4.54932565 17.59171074 -6.58330299 17.32053616 -9.4375 15.125 C-12.03473593 11.59275913 -12.5180745 9.40363323 -12 5 C-8.52091943 0.15037254 -5.87617219 -0.92781666 0 0 Z " fill="#4E5A6D" transform="translate(202,274)"/>
<path d="M0 0 C8.84433962 -0.35377358 8.84433962 -0.35377358 13.0625 0.9375 C15.67948424 3.72332193 16.05779285 6.00173383 16.2421875 9.76953125 C16 12 16 12 14.25 15.0625 C9.39459869 17.95706617 5.59818123 17.33723983 0 17 C0 11.39 0 5.78 0 0 Z " fill="#4A566A" transform="translate(143,274)"/>
<path d="M0 0 C1.32 0 2.64 0 4 0 C4.33 2.97 4.66 5.94 5 9 C5.66 8.67 6.32 8.34 7 8 C7.46523063 6.10466658 7.46523063 6.10466658 7.625 3.9375 C7.74875 2.638125 7.8725 1.33875 8 0 C9.98 0 11.96 0 14 0 C14.66 2.64 15.32 5.28 16 8 C16.33 8 16.66 8 17 8 C17.66 5.36 18.32 2.72 19 0 C20.32 0 21.64 0 23 0 C22.58411954 6.19518473 21.39748106 11.26689311 19 17 C16.6875 17.3125 16.6875 17.3125 14 17 C12.3125 14.5 12.3125 14.5 11 12 C10.34 12 9.68 12 9 12 C8.67 13.32 8.34 14.64 8 16 C6.68 16 5.36 16 4 16 C3.32586789 14.08594633 2.6609668 12.16863974 2 10.25 C1.62875 9.18265625 1.2575 8.1153125 0.875 7.015625 C0 4 0 4 0 0 Z " fill="#505C6F" transform="translate(350,274)"/>
<path d="M0 0 C1.5675 -0.061875 3.135 -0.12375 4.75 -0.1875 C6.07257813 -0.23970703 6.07257813 -0.23970703 7.421875 -0.29296875 C10.64314726 0.07308492 11.87813526 0.52449114 14 3 C14.29642569 5.71229503 14.38061189 7.99739732 14.25 10.6875 C14.23195313 11.38939453 14.21390625 12.09128906 14.1953125 12.81445312 C14.14826213 14.54355436 14.07651873 16.27195205 14 18 C12.35 18 10.7 18 9 18 C8.71125 17.195625 8.4225 16.39125 8.125 15.5625 C7.26737432 12.8673532 7.26737432 12.8673532 5 12 C5 13.98 5 15.96 5 18 C3.35 18 1.7 18 0 18 C0 12.06 0 6.12 0 0 Z " fill="#535F71" transform="translate(362,315)"/>
<path d="M0 0 C1.65 0 3.3 0 5 0 C5.66 1.65 6.32 3.3 7 5 C7.99 5 8.98 5 10 5 C10.66 3.35 11.32 1.7 12 0 C13.65 0 15.3 0 17 0 C17 5.61 17 11.22 17 17 C15.68 17 14.36 17 13 17 C13 14.69 13 12.38 13 10 C12.01 10.495 12.01 10.495 11 11 C10.67 11.99 10.34 12.98 10 14 C9.01 14 8.02 14 7 14 C6.34 12.68 5.68 11.36 5 10 C4.67 12.31 4.34 14.62 4 17 C2.68 17 1.36 17 0 17 C0 11.39 0 5.78 0 0 Z " fill="#495669" transform="translate(302,274)"/>
<path d="M0 0 C0.33 1.32 0.66 2.64 1 4 C-2.47325181 5.1577506 -5.36067448 5.06866652 -9 5 C-9 6.98 -9 8.96 -9 11 C-8.01 11 -7.02 11 -6 11 C-6 9.68 -6 8.36 -6 7 C-2.7 7 0.6 7 4 7 C3.74624791 10.72169726 3.39626084 12.55712024 0.875 15.375 C-2.79959438 17.45194465 -4.83754227 17.66896642 -9 17 C-12.09242064 14.9603183 -13.67421425 13.48854954 -14.48046875 9.8046875 C-14.72612322 5.78126566 -14.49130177 3.66563466 -12.0625 0.375 C-7.8088289 -1.53481151 -4.48008087 -0.89796828 0 0 Z " fill="#475468" transform="translate(234,316)"/>
<path d="M0 0 C7.51953125 -0.390625 7.51953125 -0.390625 10 0 C11.8515625 1.76953125 11.8515625 1.76953125 13 4 C12.77616185 6.01454332 12.54607485 8.03098355 12.1953125 10.02734375 C11.92592674 12.74813992 12.73584174 14.62040798 14 17 C9.68607774 16.5206753 7.83430453 15.2542015 5 12 C5 13.65 5 15.3 5 17 C3.35 17 1.7 17 0 17 C0 11.39 0 5.78 0 0 Z " fill="#576275" transform="translate(39,274)"/>
<path d="M0 0 C1.65 0 3.3 0 5 0 C6.97610386 2.04424538 8 3.1176825 8 6 C8.66 6 9.32 6 10 6 C10 4.02 10 2.04 10 0 C11.32 0 12.64 0 14 0 C14 5.61 14 11.22 14 17 C12.68 17 11.36 17 10 17 C8.02 13.535 8.02 13.535 6 10 C5.67 12.31 5.34 14.62 5 17 C3.35 17 1.7 17 0 17 C0 11.39 0 5.78 0 0 Z " fill="#505C6F" transform="translate(123,274)"/>
<path d="M0 0 C1.65 0 3.3 0 5 0 C10.55580866 11.33712984 10.55580866 11.33712984 11 18 C9.35 18 7.7 18 6 18 C6 17.01 6 16.02 6 15 C3.69 15 1.38 15 -1 15 C-1 15.99 -1 16.98 -1 18 C-2.65 18 -4.3 18 -6 18 C-4.83805848 11.53287812 -2.8751252 5.90377651 0 0 Z " fill="#525E71" transform="translate(253,315)"/>
<path d="M0 0 C5 1 5 1 7 3 C7.165 3.680625 7.33 4.36125 7.5 5.0625 C7.665 5.701875 7.83 6.34125 8 7 C8.66 7.33 9.32 7.66 10 8 C10 5.36 10 2.72 10 0 C11.32 0 12.64 0 14 0 C14 5.94 14 11.88 14 18 C10 17 10 17 7.75 14.0625 C6 11 6 11 6 9 C5.34 9 4.68 9 4 9 C4 11.97 4 14.94 4 18 C2.68 18 1.36 18 0 18 C0 12.06 0 6.12 0 0 Z " fill="#455266" transform="translate(274,315)"/>
<path d="M0 0 C1.32 0 2.64 0 4 0 C4 2.31 4 4.62 4 7 C6.64 7 9.28 7 12 7 C12 4.69 12 2.38 12 0 C13.32 0 14.64 0 16 0 C16 5.94 16 11.88 16 18 C14.35 18 12.7 18 11 18 C11 15.69 11 13.38 11 11 C8.69 11 6.38 11 4 11 C4 13.31 4 15.62 4 18 C2.68 18 1.36 18 0 18 C0 12.06 0 6.12 0 0 Z " fill="#4D5A6D" transform="translate(314,315)"/>
<path d="M0 0 C1.98 0 3.96 0 6 0 C8.45417612 5.673142 10.46246904 10.81839396 11 17 C9.35 16.67 7.7 16.34 6 16 C6 15.34 6 14.68 6 14 C3.69 14 1.38 14 -1 14 C-1 14.99 -1 15.98 -1 17 C-2.32 17 -3.64 17 -5 17 C-4.46246904 10.81839396 -2.45417612 5.673142 0 0 Z " fill="#586375" transform="translate(24,274)"/>
<path d="M0 0 C8.625 -0.25 8.625 -0.25 12 2 C12.1875 5.375 12.1875 5.375 12 9 C12 12.11257569 12.17361624 14.10765685 13 17 C11.35 16.67 9.7 16.34 8 16 C7.67 14.68 7.34 13.36 7 12 C6.01 12 5.02 12 4 12 C4 13.65 4 15.3 4 17 C2.68 17 1.36 17 0 17 C0 11.39 0 5.78 0 0 Z " fill="#465367" transform="translate(232,274)"/>
<path d="M0 0 C1.98 0 3.96 0 6 0 C6.84442881 1.89091736 7.67511587 3.78797515 8.5 5.6875 C8.9640625 6.74324219 9.428125 7.79898437 9.90625 8.88671875 C10.94950801 11.85627816 11.23065301 13.89195063 11 17 C9.68 17 8.36 17 7 17 C7 16.01 7 15.02 7 14 C4.69 14.33 2.38 14.66 0 15 C-0.33 15.99 -0.66 16.98 -1 18 C-2.32 18 -3.64 18 -5 18 C-5.21626619 14.10720861 -4.59656285 11.44538115 -3.0625 7.875 C-1.95126085 5.25422809 -0.90092352 2.70277057 0 0 Z " fill="#667081" transform="translate(438,274)"/>
<path d="M0 0 C3.63 0 7.26 0 11 0 C11 3.63 11 7.26 11 11 C9.02 11 7.04 11 5 11 C5 11.99 5 12.98 5 14 C6.98 14 8.96 14 11 14 C11 15.32 11 16.64 11 18 C7.37 18 3.74 18 0 18 C0 12.06 0 6.12 0 0 Z " fill="#535F71" transform="translate(386,315)"/>
<path d="M0 0 C1.98 0 3.96 0 6 0 C6.27714844 0.71027344 6.55429688 1.42054688 6.83984375 2.15234375 C7.20207031 3.07144531 7.56429687 3.99054688 7.9375 4.9375 C8.29714844 5.85402344 8.65679687 6.77054687 9.02734375 7.71484375 C9.7996218 9.92418533 9.7996218 9.92418533 11 11 C11.04080783 12.99958364 11.04254356 15.00045254 11 17 C9.68 17 8.36 17 7 17 C7 16.01 7 15.02 7 14 C4.69 14 2.38 14 0 14 C-0.33 14.99 -0.66 15.98 -1 17 C-1.99 17 -2.98 17 -4 17 C-4.56131481 10.54487966 -2.63463787 5.84560277 0 0 Z " fill="#445166" transform="translate(62,274)"/>
<path d="M0 0 C1.65 0 3.3 0 5 0 C5 4.29 5 8.58 5 13 C6.65 13 8.3 13 10 13 C10 8.71 10 4.42 10 0 C11.32 0 12.64 0 14 0 C14.13526139 2.24834496 14.23210804 4.49902514 14.3125 6.75 C14.39951172 8.62945312 14.39951172 8.62945312 14.48828125 10.546875 C14 14 14 14 11.67578125 16.4609375 C9 18 9 18 5.875 17.875 C3 17 3 17 0 15 C-0.22137393 12.37302936 -0.28162025 9.99106036 -0.1875 7.375 C-0.17396484 6.66859375 -0.16042969 5.9621875 -0.14648438 5.234375 C-0.1111104 3.48925872 -0.05730221 1.74453392 0 0 Z " fill="#576274" transform="translate(212,274)"/>
<path d="M0 0 C3.63 0 7.26 0 11 0 C11 1.32 11 2.64 11 4 C8.69 4 6.38 4 4 4 C4 4.99 4 5.98 4 7 C6.31 7 8.62 7 11 7 C11 8.32 11 9.64 11 11 C9.02 11 7.04 11 5 11 C5 11.66 5 12.32 5 13 C6.98 13 8.96 13 11 13 C11 14.65 11 16.3 11 18 C7.37 18 3.74 18 0 18 C0 12.06 0 6.12 0 0 Z " fill="#4D5A6D" transform="translate(341,315)"/>
<path d="M0 0 C1.32 0 2.64 0 4 0 C4 1.98 4 3.96 4 6 C6.31 6 8.62 6 11 6 C11 4.02 11 2.04 11 0 C12.32 0 13.64 0 15 0 C15 5.61 15 11.22 15 17 C13.68 17 12.36 17 11 17 C11 14.69 11 12.38 11 10 C8.69 10 6.38 10 4 10 C4 12.31 4 14.62 4 17 C2.68 17 1.36 17 0 17 C0 11.39 0 5.78 0 0 Z " fill="#4A576A" transform="translate(404,274)"/>
<path d="M0 0 C1.32 0 2.64 0 4 0 C4 1.98 4 3.96 4 6 C6.31 6 8.62 6 11 6 C11 4.02 11 2.04 11 0 C12.32 0 13.64 0 15 0 C15 5.61 15 11.22 15 17 C13.68 17 12.36 17 11 17 C11 14.69 11 12.38 11 10 C8.69 10 6.38 10 4 10 C4 12.31 4 14.62 4 17 C2.68 17 1.36 17 0 17 C0 11.39 0 5.78 0 0 Z " fill="#485569" transform="translate(260,274)"/>
<path d="M0 0 C1.32 0 2.64 0 4 0 C4.33 1.32 4.66 2.64 5 4 C5.37125 3.34 5.7425 2.68 6.125 2 C8 0 8 0 11.1875 -0.25 C12.115625 -0.1675 13.04375 -0.085 14 0 C11.525 3.465 11.525 3.465 9 7 C10.04539719 9.25162472 11.11156417 11.14589161 12.625 13.125 C14 15 14 15 14 17 C11.625 16.6875 11.625 16.6875 9 16 C8.34 15.01 7.68 14.02 7 13 C6.01 12.67 5.02 12.34 4 12 C4 13.65 4 15.3 4 17 C2.68 17 1.36 17 0 17 C0 11.39 0 5.78 0 0 Z " fill="#49566A" transform="translate(530,274)"/>
<path d="M0 0 C3.63 0 7.26 0 11 0 C11 1.32 11 2.64 11 4 C9.02 4 7.04 4 5 4 C5 4.66 5 5.32 5 6 C6.98 6 8.96 6 11 6 C11 7.32 11 8.64 11 10 C8.69 10 6.38 10 4 10 C4 10.99 4 11.98 4 13 C6.31 13 8.62 13 11 13 C11 14.32 11 15.64 11 17 C7.37 17 3.74 17 0 17 C0 11.39 0 5.78 0 0 Z " fill="#646E7F" transform="translate(325,274)"/>
<path d="M0 0 C0.7734375 -0.00773437 1.546875 -0.01546875 2.34375 -0.0234375 C4.95159728 0.45844732 5.83871866 1.36229376 7.5 3.375 C7.17 4.365 6.84 5.355 6.5 6.375 C5.86191406 6.29121094 5.22382813 6.20742188 4.56640625 6.12109375 C3.74011719 6.01925781 2.91382813 5.91742188 2.0625 5.8125 C1.23878906 5.70808594 0.41507812 5.60367187 -0.43359375 5.49609375 C-1.45646484 5.43615234 -1.45646484 5.43615234 -2.5 5.375 C-3.78322547 6.4345877 -3.78322547 6.4345877 -3.625 8.875 C-3.78322547 11.3154123 -3.78322547 11.3154123 -2.5 12.375 C0.56481021 12.5363058 2.55549278 12.35650241 5.5 11.375 C6.16 11.705 6.82 12.035 7.5 12.375 C5.75 16.25 5.75 16.25 3.5 17.375 C-3.59225092 18.06134686 -3.59225092 18.06134686 -7.0625 15.4375 C-9.01176257 11.28472322 -8.86596546 7.74281771 -7.5 3.375 C-5.31388213 0.37995166 -3.63930339 -0.03639303 0 0 Z " fill="#495569" transform="translate(471.5,273.625)"/>
<path d="M0 0 C0.99 0.66 1.98 1.32 3 2 C2.67 2.99 2.34 3.98 2 5 C-0.31 4.67 -2.62 4.34 -5 4 C-3.32939242 5.83766833 -2.24749529 6.91264872 0.125 7.75 C2 9 2 9 2.875 12.5 C2.91625 13.655 2.9575 14.81 3 16 C1 18 1 18 -0.875 18.265625 C-1.57625 18.26046875 -2.2775 18.2553125 -3 18.25 C-4.051875 18.25773437 -4.051875 18.25773437 -5.125 18.265625 C-7 18 -7 18 -9 16 C-8.625 13.875 -8.625 13.875 -8 12 C-7.01 12 -6.02 12 -5 12 C-5 12.66 -5 13.32 -5 14 C-3.68 14 -2.36 14 -1 14 C-1 13.01 -1 12.02 -1 11 C-1.94875 10.87625 -2.8975 10.7525 -3.875 10.625 C-7 10 -7 10 -9 8 C-9.3125 5 -9.3125 5 -9 2 C-5.53001271 -0.31332486 -4.07490752 -0.33957563 0 0 Z " fill="#4C586B" transform="translate(159,315)"/>
<path d="M0 0 C2.4375 1.375 2.4375 1.375 4 3 C4 3.66 4 4.32 4 5 C3.36191406 4.98839844 2.72382812 4.97679687 2.06640625 4.96484375 C1.24011719 4.95582031 0.41382813 4.94679688 -0.4375 4.9375 C-1.26121094 4.92589844 -2.08492187 4.91429687 -2.93359375 4.90234375 C-4.99163938 4.76732652 -4.99163938 4.76732652 -6 6 C-6.04063832 7.66617115 -6.042721 9.33388095 -6 11 C-2.55465996 11.86133501 -0.39620354 11.93688374 3 11 C3.66 11.33 4.32 11.66 5 12 C4 15 4 15 1 17 C-4.05760286 17.65259392 -4.05760286 17.65259392 -7 17 C-10.28826203 14.12277073 -11.74931432 12.22835983 -12.625 7.9375 C-11.14852226 0.99805464 -6.65084831 -0.96739612 0 0 Z " fill="#515D70" transform="translate(520,274)"/>
<path d="M0 0 C3.63 0 7.26 0 11 0 C11 1.32 11 2.64 11 4 C9.02 4 7.04 4 5 4 C5 4.66 5 5.32 5 6 C7.31 6 9.62 6 12 6 C12 7.65 12 9.3 12 11 C9.69 11 7.38 11 5 11 C5 12.98 5 14.96 5 17 C3.35 17 1.7 17 0 17 C0 11.39 0 5.78 0 0 Z " fill="#5D687A" transform="translate(97,274)"/>
<path d="M0 0 C1.670625 0.061875 1.670625 0.061875 3.375 0.125 C4.035 1.445 4.695 2.765 5.375 4.125 C2.375 5.125 2.375 5.125 -0.625 4.125 C0.88163783 7.13827566 3.40666411 7.73556618 6.375 9.125 C6.5 12 6.5 12 6.375 15.125 C4.375 17.125 4.375 17.125 2.5 17.390625 C1.79875 17.38546875 1.0975 17.3803125 0.375 17.375 C-0.676875 17.38273437 -0.676875 17.38273437 -1.75 17.390625 C-3.625 17.125 -3.625 17.125 -5.625 15.125 C-5.625 14.135 -5.625 13.145 -5.625 12.125 C-2.985 12.455 -0.345 12.785 2.375 13.125 C2.375 12.465 2.375 11.805 2.375 11.125 C1.42625 10.83625 0.4775 10.5475 -0.5 10.25 C-3.625 9.125 -3.625 9.125 -5.625 7.125 C-5.875 4.625 -5.875 4.625 -5.625 2.125 C-3.625 0.125 -3.625 0.125 0 0 Z " fill="#4D5A6D" transform="translate(8.625,273.875)"/>
<path d="M0 0 C4.62 0 9.24 0 14 0 C13.67 1.65 13.34 3.3 13 5 C12.01 5 11.02 5 10 5 C10 8.96 10 12.92 10 17 C8.02 17 6.04 17 4 17 C4 12.71 4 8.42 4 4 C2.68 4 1.36 4 0 4 C0 2.68 0 1.36 0 0 Z " fill="#9098A3" transform="translate(386,274)"/>
<path d="M0 0 C1.65 0 3.3 0 5 0 C5.33 1.65 5.66 3.3 6 5 C6.99 5 7.98 5 9 5 C9.33 3.35 9.66 1.7 10 0 C11.65 0 13.3 0 15 0 C14.55527344 1.04220703 14.55527344 1.04220703 14.1015625 2.10546875 C12.94421163 5.14659284 12.13934996 8.15087063 11.375 11.3125 C11.11460937 12.38113281 10.85421875 13.44976562 10.5859375 14.55078125 C10.29589844 15.76314453 10.29589844 15.76314453 10 17 C8.35 17 6.7 17 5 17 C4.89042969 16.41992188 4.78085938 15.83984375 4.66796875 15.2421875 C3.68125712 10.38082776 2.36364178 6.40496877 0 2 C0 1.34 0 0.68 0 0 Z " fill="#566174" transform="translate(173,274)"/>
<path d="M0 0 C1.65 0 3.3 0 5 0 C5 4.62 5 9.24 5 14 C7.31 14 9.62 14 12 14 C12 15.32 12 16.64 12 18 C8.04 18 4.08 18 0 18 C0 12.06 0 6.12 0 0 Z " fill="#717B8A" transform="translate(172,315)"/>
<path d="M0 0 C0.66 0.33 1.32 0.66 2 1 C1.3503125 1.5878125 1.3503125 1.5878125 0.6875 2.1875 C-1.0813566 3.9489687 -1.0813566 3.9489687 -2.25 6.1875 C-3.84091599 8.74432927 -5.45743427 10.62403672 -7.5 12.8125 C-10.96422774 16.65757307 -12.5037574 20.07120085 -14 25 C-14.66 24.01 -15.32 23.02 -16 22 C-16.66 22 -17.32 22 -18 22 C-15.20035645 12.27194566 -8.32041571 5.44367623 0 0 Z " fill="#EBF0F0" transform="translate(248,111)"/>
<path d="M0 0 C1.32 0 2.64 0 4 0 C4 4.29 4 8.58 4 13 C6.31 13 8.62 13 11 13 C11 14.32 11 15.64 11 17 C7.37 17 3.74 17 0 17 C0 11.39 0 5.78 0 0 Z " fill="#4C596C" transform="translate(484,274)"/>
<path d="M0 0 C1.65 0 3.3 0 5 0 C5 5.61 5 11.22 5 17 C3.35 17 1.7 17 0 17 C0 11.39 0 5.78 0 0 Z " fill="#616C7D" transform="translate(113,274)"/>
<path d="M0 0 C1.65 0 3.3 0 5 0 C5 5.61 5 11.22 5 17 C3.35 17 1.7 17 0 17 C0 11.39 0 5.78 0 0 Z " fill="#616C7D" transform="translate(499,274)"/>
<path d="M0 0 C1.65 0 3.3 0 5 0 C5 5.61 5 11.22 5 17 C3.35 17 1.7 17 0 17 C0 11.39 0 5.78 0 0 Z " fill="#5F6A7B" transform="translate(377,274)"/>
<path d="M0 0 C0.33 1.32 0.66 2.64 1 4 C-2.47325181 5.1577506 -5.36067448 5.06866652 -9 5 C-9.33 6.65 -9.66 8.3 -10 10 C-10.66 8.68 -11.32 7.36 -12 6 C-12.33 7.98 -12.66 9.96 -13 12 C-13.33 12 -13.66 12 -14 12 C-14.76564215 4.03732162 -14.76564215 4.03732162 -12.0625 0.375 C-7.8088289 -1.53481151 -4.48008087 -0.89796828 0 0 Z " fill="#556073" transform="translate(234,316)"/>
<path d="M0 0 C0.33 0 0.66 0 1 0 C1.33 1.98 1.66 3.96 2 6 C6.10223585 7.01540112 6.10223585 7.01540112 10 6 C11.13350534 3.98330173 11.13350534 3.98330173 12 2 C13.31690141 8.34507042 13.31690141 8.34507042 12.0625 10.9375 C8.77343266 12.63186802 5.61606586 12.52734294 2 12 C0 11 0 11 -1 9 C-1.28783913 6.2433868 -1.18026547 3.79411485 -1 1 C-0.67 0.67 -0.34 0.34 0 0 Z " fill="#455266" transform="translate(193,279)"/>
<path d="M0 0 C0.33 0.99 0.66 1.98 1 3 C2.093125 2.773125 3.18625 2.54625 4.3125 2.3125 C8 2 8 2 9.9375 3.125 C11.30361625 5.53579338 11.22111261 7.27294446 11 10 C9.68 10 8.36 10 7 10 C7 9.01 7 8.02 7 7 C4.6568787 7.25561323 2.32156597 7.59270772 0 8 C-0.33 8.66 -0.66 9.32 -1 10 C-1.99 10 -2.98 10 -4 10 C-4 9.01 -4 8.02 -4 7 C-3.34 7 -2.68 7 -2 7 C-2.04125 6.21625 -2.0825 5.4325 -2.125 4.625 C-2 2 -2 2 0 0 Z " fill="#424F64" transform="translate(438,281)"/>
<path d="M0 0 C1.32 0 2.64 0 4 0 C4.33 2.97 4.66 5.94 5 9 C5.99 8.67 6.98 8.34 8 8 C9.125 9.75 9.125 9.75 10 12 C9.125 14.25 9.125 14.25 8 16 C6.68 16 5.36 16 4 16 C3.32586789 14.08594633 2.6609668 12.16863974 2 10.25 C1.62875 9.18265625 1.2575 8.1153125 0.875 7.015625 C0 4 0 4 0 0 Z " fill="#3D4B60" transform="translate(350,274)"/>
<path d="M0 0 C2.64 0 5.28 0 8 0 C8 0.66 8 1.32 8 2 C6.02 2 4.04 2 2 2 C2 3.32 2 4.64 2 6 C3.98 6 5.96 6 8 6 C8 6.99 8 7.98 8 9 C6.02 9 4.04 9 2 9 C2 10.32 2 11.64 2 13 C3.98 13 5.96 13 8 13 C8 13.66 8 14.32 8 15 C5.36 15 2.72 15 0 15 C0 10.05 0 5.1 0 0 Z " fill="#37455A" transform="translate(327,275)"/>
<path d="M0 0 C3.0625 0.125 3.0625 0.125 5.0625 1.125 C5.25 4 5.25 4 5.0625 7.125 C2.0625 9.125 2.0625 9.125 -0.5625 8.8125 C-2.9375 8.125 -2.9375 8.125 -3.9375 7.125 C-4.0625 4.125 -4.0625 4.125 -3.9375 1.125 C-2.9375 0.125 -2.9375 0.125 0 0 Z " fill="#EBEDEF" transform="translate(200.9375,319.875)"/>
<path d="M0 0 C3.0625 0.1875 3.0625 0.1875 5.0625 2.1875 C5.375 4.6875 5.375 4.6875 5.0625 7.1875 C2.0625 9.1875 2.0625 9.1875 -1.125 8.8125 C-2.5171875 8.503125 -2.5171875 8.503125 -3.9375 8.1875 C-3.97991723 5.85455225 -3.97842937 3.52047433 -3.9375 1.1875 C-2.9375 0.1875 -2.9375 0.1875 0 0 Z " fill="#E5E7EA" transform="translate(198.9375,277.8125)"/>
<path d="M0 0 C2.5 0.25 2.5 0.25 4.5 2.25 C4.75 4.75 4.75 4.75 4.5 7.25 C2.5 9.25 2.5 9.25 0 9.5 C-2.5 9.25 -2.5 9.25 -4.5 7.25 C-4.75 4.75 -4.75 4.75 -4.5 2.25 C-2.5 0.25 -2.5 0.25 0 0 Z " fill="#EAECEE" transform="translate(288.5,277.75)"/>
<path d="M0 0 C1.17369141 -0.02513672 1.17369141 -0.02513672 2.37109375 -0.05078125 C5.02377163 0.38896749 5.885467 1.26878454 7.5625 3.3125 C7.2325 4.3025 6.9025 5.2925 6.5625 6.3125 C3.5925 5.9825 0.6225 5.6525 -2.4375 5.3125 C-3.0975 6.9625 -3.7575 8.6125 -4.4375 10.3125 C-4.7675 8.9925 -5.0975 7.6725 -5.4375 6.3125 C-6.0975 6.3125 -6.7575 6.3125 -7.4375 6.3125 C-6.4639024 1.44451199 -4.98132443 0.02453854 0 0 Z " fill="#525D70" transform="translate(471.4375,273.6875)"/>
<path d="M0 0 C2.875 -0.125 2.875 -0.125 6 0 C8 2 8 2 8.25 4.5 C8 7 8 7 6 9 C2.875 9.125 2.875 9.125 0 9 C0 6.03 0 3.06 0 0 Z " fill="#E3E5E8" transform="translate(147,278)"/>
<path d="M0 0 C0.91005593 3.30798107 0.96253813 5.76495157 0.5625 9.1875 C-0.46186549 18.04372318 0.11077122 25.86311205 2 34.5625 C2.19078125 35.47580078 2.3815625 36.38910156 2.578125 37.33007812 C3.04411929 39.55520087 3.51816975 41.77826276 4 44 C3.34 43.67 2.68 43.34 2 43 C1.4375 41.07421875 1.4375 41.07421875 1 38.6875 C0.55096405 36.26190404 0.17291614 34.31466428 -1.01855469 32.14648438 C-2.13846146 29.69717583 -2.25807526 28.01461493 -2.265625 25.33203125 C-2.26820313 24.43806641 -2.27078125 23.54410156 -2.2734375 22.62304688 C-2.26570312 21.69556641 -2.25796875 20.76808594 -2.25 19.8125 C-2.25773438 18.90435547 -2.26546875 17.99621094 -2.2734375 17.06054688 C-2.25632151 11.08278764 -1.49026366 5.78955606 0 0 Z " fill="#7C8593" transform="translate(212,134)"/>
<path d="M0 0 C3.96 0 7.92 0 12 0 C12 0.99 12 1.98 12 3 C10.68 3.33 9.36 3.66 8 4 C7.67 7.96 7.34 11.92 7 16 C6.34 16 5.68 16 5 16 C4.67 12.04 4.34 8.08 4 4 C2.68 3.67 1.36 3.34 0 3 C0 2.01 0 1.02 0 0 Z " fill="#3A485D" transform="translate(387,274)"/>
<path d="M0 0 C6.07772021 -0.44041451 6.07772021 -0.44041451 9 0 C11.0625 2.5 11.0625 2.5 12 5 C11.01 5 10.02 5 9 5 C9 4.34 9 3.68 9 3 C7.02 3.33 5.04 3.66 3 4 C2.36605303 8.04141194 1.87595548 11.9065307 2 16 C1.34 16 0.68 16 0 16 C0 10.72 0 5.44 0 0 Z " fill="#3B485E" transform="translate(40,274)"/>
<path d="M0 0 C3.68007532 0.18098731 6.40147147 0.85636692 9.8125 2.1875 C9.8125 2.5175 9.8125 2.8475 9.8125 3.1875 C6.5125 3.1875 3.2125 3.1875 -0.1875 3.1875 C-0.1875 4.5075 -0.1875 5.8275 -0.1875 7.1875 C1.1325 7.5175 2.4525 7.8475 3.8125 8.1875 C1.5 8.8125 1.5 8.8125 -1.1875 9.1875 C-2.1775 8.5275 -3.1675 7.8675 -4.1875 7.1875 C-4.4375 4.125 -4.4375 4.125 -4.1875 1.1875 C-3.1875 0.1875 -3.1875 0.1875 0 0 Z " fill="#D9DCE0" transform="translate(228.1875,319.8125)"/>
<path d="M0 0 C1.98 0 3.96 0 6 0 C6.33 1.65 6.66 3.3 7 5 C6.34 4.01 5.68 3.02 5 2 C4.01 2 3.02 2 2 2 C1.67 3.32 1.34 4.64 1 6 C2.32 6.33 3.64 6.66 5 7 C5 8.32 5 9.64 5 11 C3.68 11 2.36 11 1 11 C0.67 10.34 0.34 9.68 0 9 C-1.32 10.65 -2.64 12.3 -4 14 C-3.46148032 8.72250715 -2.22656164 4.74354436 0 0 Z " fill="#7A8392" transform="translate(62,274)"/>
<path d="M0 0 C0.66 0 1.32 0 2 0 C2 4.29 2 8.58 2 13 C4.31 13 6.62 13 9 13 C9 13.99 9 14.98 9 16 C6.03 16 3.06 16 0 16 C0 10.72 0 5.44 0 0 Z " fill="#36445A" transform="translate(174,316)"/>
<path d="M0 0 C1.11375 0.33 2.2275 0.66 3.375 1 C4.035 2.32 4.695 3.64 5.375 5 C2.405 5 -0.565 5 -3.625 5 C-4.285 6.65 -4.945 8.3 -5.625 10 C-5.955 10 -6.285 10 -6.625 10 C-7.375 7.25 -7.375 7.25 -7.625 4 C-5.3888676 0.36628486 -4.28690815 0 0 0 Z " fill="#455266" transform="translate(518.625,274)"/>
<path d="M0 0 C-0.66 3.63 -1.32 7.26 -2 11 C-2.33 11 -2.66 11 -3 11 C-3.33 9.35 -3.66 7.7 -4 6 C-4.33 8.31 -4.66 10.62 -5 13 C-7 11 -7 11 -7.4375 8.1875 C-6.88236952 4.14297792 -4.54805741 0 0 0 Z " fill="#687383" transform="translate(197,274)"/>
<path d="M0 0 C1.98 0 3.96 0 6 0 C5.67 1.65 5.34 3.3 5 5 C3.02 5 1.04 5 -1 5 C-0.67 3.35 -0.34 1.7 0 0 Z " fill="#969EA9" transform="translate(43,277)"/>
<path d="M0 0 C-1.3881735 3.12857014 -3.01101878 5.28189174 -5.4375 7.6875 C-6.03433594 8.28949219 -6.63117188 8.89148438 -7.24609375 9.51171875 C-9 11 -9 11 -12 12 C-10.53033642 8.60140297 -8.61962486 6.35036291 -6 3.75 C-5.29875 3.04359375 -4.5975 2.3371875 -3.875 1.609375 C-2 0 -2 0 0 0 Z " fill="#5F6A7B" transform="translate(235,102)"/>
<path d="M0 0 C0.66 0.33 1.32 0.66 2 1 C0.56877218 2.48523642 -0.87020889 3.96300462 -2.3125 5.4375 C-3.11300781 6.26121094 -3.91351563 7.08492187 -4.73828125 7.93359375 C-7 10 -7 10 -10 11 C-8.55218207 7.55571735 -6.72305391 5.63869038 -3.875 3.25 C-3.15054687 2.63640625 -2.42609375 2.0228125 -1.6796875 1.390625 C-0.84824219 0.70226562 -0.84824219 0.70226562 0 0 Z " fill="#DEF1E9" transform="translate(279,124)"/>
<path d="M0 0 C2.8125 0.1875 2.8125 0.1875 6 1 C8.74469461 4.29363353 9.36303085 6.76464012 9 11 C8 9 7 7 6 5 C4.02477154 3.95191959 2.02518491 2.9479589 0 2 C0 1.34 0 0.68 0 0 Z " fill="#A7ADB6" transform="translate(154,319)"/>
<path d="M0 0 C1.32 0 2.64 0 4 0 C4.33 2.64 4.66 5.28 5 8 C4.67 7.01 4.34 6.02 4 5 C3.34 5 2.68 5 2 5 C1.67 5.66 1.34 6.32 1 7 C0.67 4.69 0.34 2.38 0 0 Z " fill="#505C6F" transform="translate(350,274)"/>
<path d="M0 0 C0 1.32 0 2.64 0 4 C-0.66 4.66 -1.32 5.32 -2 6 C-2.99 5.67 -3.98 5.34 -5 5 C-5 7.31 -5 9.62 -5 12 C-5.33 12 -5.66 12 -6 12 C-6.48979592 4.65306122 -6.48979592 4.65306122 -4.125 1.5 C-2 0 -2 0 0 0 Z " fill="#626D7E" transform="translate(286,274)"/>
<path d="M0 0 C1.32 0 2.64 0 4 0 C3.67 2.97 3.34 5.94 3 9 C2.67 9 2.34 9 2 9 C1.67 7.35 1.34 5.7 1 4 C0.34 4.66 -0.32 5.32 -1 6 C-0.67 4.02 -0.34 2.04 0 0 Z " fill="#667081" transform="translate(369,274)"/>
<path d="M0 0 C0.66 0.66 1.32 1.32 2 2 C1.96712417 4.72869407 1.43602229 7.2966618 1 10 C0.34 9.01 -0.32 8.02 -1 7 C-1.66 7 -2.32 7 -3 7 C-1.125 1.125 -1.125 1.125 0 0 Z " fill="#D3DCDD" transform="translate(233,126)"/>
<path d="M0 0 C0.33 0 0.66 0 1 0 C1.33 1.65 1.66 3.3 2 5 C2.33 5 2.66 5 3 5 C3 7.31 3 9.62 3 12 C2.01 11.67 1.02 11.34 0 11 C0 7.37 0 3.74 0 0 Z " fill="#F0F4F3" transform="translate(227,142)"/>
<path d="M0 0 C0.99 0.33 1.98 0.66 3 1 C2.0409375 1.7734375 2.0409375 1.7734375 1.0625 2.5625 C-1.55791681 5.65935623 -1.69389817 8.02067623 -2 12 C-2.33 12 -2.66 12 -3 12 C-3.08131463 10.56344146 -3.13933559 9.1255517 -3.1875 7.6875 C-3.22230469 6.88699219 -3.25710937 6.08648437 -3.29296875 5.26171875 C-2.93801608 2.52148416 -2.10633718 1.70828921 0 0 Z " fill="#525E71" transform="translate(196,316)"/>
<path d="M0 0 C0.66 0.33 1.32 0.66 2 1 C-0.64 3.64 -3.28 6.28 -6 9 C-6.66 8.67 -7.32 8.34 -8 8 C-5.33333333 5.33333333 -2.66666667 2.66666667 0 0 Z " fill="#D1D4D9" transform="translate(245,113)"/>
<path d="M0 0 C2.475 0.495 2.475 0.495 5 1 C5 1.99 5 2.98 5 4 C3.35 4 1.7 4 0 4 C0 2.68 0 1.36 0 0 Z " fill="#CBCFD4" transform="translate(367,319)"/>
<path d="M0 0 C1.65 0 3.3 0 5 0 C4.67 1.32 4.34 2.64 4 4 C2.68 4 1.36 4 0 4 C0 2.68 0 1.36 0 0 Z " fill="#C6CAD0" transform="translate(236,278)"/>
<path d="M0 0 C2.0625 1.6875 2.0625 1.6875 4 4 C3.75 6.75 3.75 6.75 3 9 C2.34 9 1.68 9 1 9 C0.67 6.03 0.34 3.06 0 0 Z " fill="#ADB3BC" transform="translate(354,274)"/>
</svg>
